<svg width="18" height="17" viewBox="0 0 18 17" fill="none" xmlns="http://www.w3.org/2000/svg">
<path d="M15.677 16.607L9.96201 10.891C7.41968 12.6985 3.91645 12.2564 1.90288 9.87395C-0.110681 7.49153 0.0371699 3.96361 2.24301 1.75802C4.44827 -0.448534 7.97654 -0.597024 10.3594 1.41644C12.7423 3.42989 13.1846 6.93347 11.377 9.47602L17.092 15.192L15.678 16.606L15.677 16.607ZM6.48501 2.00001C4.58871 1.99958 2.9527 3.3307 2.56749 5.18745C2.18227 7.04421 3.15372 8.91629 4.89369 9.67026C6.63365 10.4242 8.66391 9.85285 9.75525 8.30207C10.8466 6.75129 10.6991 4.64734 9.40201 3.26402L10.007 3.86402L9.32501 3.18402L9.31301 3.17202C8.5648 2.4192 7.54641 1.99715 6.48501 2.00001Z" fill="#FF5252"/>
</svg>
