<svg width="17" height="20" viewBox="0 0 17 20" fill="none" xmlns="http://www.w3.org/2000/svg">
<path d="M8.49899 4C8.89455 4 9.28123 3.8827 9.61013 3.66294C9.93902 3.44318 10.1954 3.13082 10.3467 2.76537C10.4981 2.39992 10.5377 1.99778 10.4606 1.60982C10.3834 1.22186 10.1929 0.865492 9.9132 0.585787C9.63349 0.306082 9.27713 0.115601 8.88917 0.0384303C8.5012 -0.0387401 8.09907 0.000866562 7.73362 0.152242C7.36817 0.303617 7.05581 0.559962 6.83605 0.88886C6.61628 1.21776 6.49899 1.60444 6.49899 2C6.49899 2.53043 6.7097 3.03914 7.08477 3.41421C7.45985 3.78929 7.96855 4 8.49899 4ZM15.999 18H14.999V13C14.999 12.7348 14.8936 12.4804 14.7061 12.2929C14.5186 12.1054 14.2642 12 13.999 12H8.99899V10H13.999C14.2642 10 14.5186 9.89464 14.7061 9.70711C14.8936 9.51957 14.999 9.26522 14.999 9C14.999 8.73478 14.8936 8.48043 14.7061 8.29289C14.5186 8.10536 14.2642 8 13.999 8H8.99899V6C8.99899 5.73478 8.89363 5.48043 8.70609 5.29289C8.51856 5.10536 8.2642 5 7.99899 5C7.73377 5 7.47942 5.10536 7.29188 5.29289C7.10434 5.48043 6.99899 5.73478 6.99899 6V13C6.99899 13.2652 7.10434 13.5196 7.29188 13.7071C7.47942 13.8946 7.73377 14 7.99899 14H12.999V19C12.999 19.2652 13.1043 19.5196 13.2919 19.7071C13.4794 19.8946 13.7338 20 13.999 20H15.999C16.2642 20 16.5186 19.8946 16.7061 19.7071C16.8936 19.5196 16.999 19.2652 16.999 19C16.999 18.7348 16.8936 18.4804 16.7061 18.2929C16.5186 18.1054 16.2642 18 15.999 18ZM9.19899 16.4C8.69527 17.0716 7.993 17.5677 7.19166 17.8181C6.39031 18.0684 5.53052 18.0602 4.73408 17.7947C3.93763 17.5293 3.2449 17.0199 2.75402 16.3388C2.26313 15.6578 1.99899 14.8395 1.99899 14C2.00016 13.2227 2.22778 12.4626 2.654 11.8126C3.08023 11.1626 3.6866 10.6509 4.39899 10.34C4.64298 10.2339 4.83485 10.0352 4.93237 9.7877C5.02989 9.54015 5.02507 9.264 4.91899 9.02C4.8129 8.776 4.61423 8.58414 4.36668 8.48662C4.11913 8.3891 3.84298 8.39391 3.59899 8.5C2.75748 8.86745 2.01155 9.42313 1.41862 10.1243C0.825688 10.8254 0.40159 11.6532 0.178985 12.5441C-0.0436197 13.4349 -0.0587921 14.365 0.134636 15.2626C0.328065 16.1602 0.724933 17.0014 1.29468 17.7215C1.86442 18.4416 2.59184 19.0214 3.4209 19.4161C4.24997 19.8108 5.15857 20.0099 6.07672 19.9982C6.99487 19.9864 7.89808 19.7641 8.71679 19.3483C9.53549 18.9326 10.2478 18.3344 10.799 17.6C10.9581 17.3878 11.0264 17.1211 10.9889 16.8586C10.9514 16.596 10.8112 16.3591 10.599 16.2C10.3868 16.0409 10.1201 15.9725 9.85756 16.01C9.59501 16.0476 9.35812 16.1878 9.19899 16.4Z" fill="#009688"/>
</svg>
